<svg width="68" height="68" viewBox="0 0 68 68" fill="none" xmlns="http://www.w3.org/2000/svg">
<path d="M0 4.8705C0 2.18025 2.2355 0 4.99375 0H63.0062C65.7645 0 68 2.18025 68 4.8705V63.1295C68 65.8198 65.7645 68 63.0062 68H4.99375C2.2355 68 0 65.8198 0 63.1295V4.8705ZM21.0077 56.9245V26.2183H10.8035V56.9245H21.0077ZM15.9078 22.0235C19.465 22.0235 21.6792 19.669 21.6792 16.7195C21.6155 13.7063 19.4693 11.4155 15.9758 11.4155C12.4823 11.4155 10.2 13.7105 10.2 16.7195C10.2 19.669 12.4143 22.0235 15.8397 22.0235H15.9078ZM36.7668 56.9245V39.7758C36.7668 38.8578 36.8347 37.9397 37.1067 37.2852C37.842 35.4535 39.5208 33.5537 42.3428 33.5537C46.036 33.5537 47.5107 36.3673 47.5107 40.4983V56.9245H57.715V39.3125C57.715 29.8775 52.683 25.4915 45.968 25.4915C40.5535 25.4915 38.1268 28.4665 36.7668 30.5617V30.668H36.6988L36.7668 30.5617V26.2183H26.5667C26.6942 29.0998 26.5667 56.9245 26.5667 56.9245H36.7668Z" fill="white"/>
</svg>
