<svg width="454" height="62" viewBox="0 0 454 62" fill="none" xmlns="http://www.w3.org/2000/svg">
<path d="M23.1282 19.9715L23.1106 8.11143L47.8951 1.99998L47.9131 14.1494L32.639 17.9325" stroke="#F5F5F5" stroke-width="3.9484" stroke-linecap="round" stroke-linejoin="round"/>
<path d="M2.95868 32.44L47.923 21.3811L47.9393 32.3733L35.0072 35.5745L35.0398 57.5591L24.9667 50.053L24.9487 37.9036" stroke="#F5F5F5" stroke-width="3.9484" stroke-linecap="round" stroke-linejoin="round"/>
<path d="M19.5598 51.9255L19.5414 39.5206L24.8 37.9292L24.818 50.0701L34.9565 57.7092L29.962 59.96L19.5598 51.9255Z" fill="#F5F5F5" stroke="#F5F5F5" stroke-width="3.9484" stroke-linecap="round" stroke-linejoin="round"/>
<path d="M17.1483 21.8406L17.1299 9.43576L23.178 8.10712L23.1956 19.9841L17.1483 21.8406Z" fill="#F5F5F5" stroke="#F5F5F5" stroke-width="3.9484" stroke-linecap="round" stroke-linejoin="round"/>
<path d="M80.1992 15.7812V30H77.2695V15.7812H80.1992ZM85.8633 21.8555V24.1406H79.3984V21.8555H85.8633ZM86.5469 15.7812V18.0762H79.3984V15.7812H86.5469ZM91.0391 19.4336V30H88.2168V19.4336H91.0391ZM88.041 16.6797C88.041 16.2695 88.1842 15.931 88.4707 15.6641C88.7572 15.3971 89.1413 15.2637 89.623 15.2637C90.0983 15.2637 90.4792 15.3971 90.7656 15.6641C91.0586 15.931 91.2051 16.2695 91.2051 16.6797C91.2051 17.0898 91.0586 17.4284 90.7656 17.6953C90.4792 17.9622 90.0983 18.0957 89.623 18.0957C89.1413 18.0957 88.7572 17.9622 88.4707 17.6953C88.1842 17.4284 88.041 17.0898 88.041 16.6797ZM96.1172 21.6895V30H93.3047V19.4336H95.9414L96.1172 21.6895ZM95.707 24.3457H94.9453C94.9453 23.5645 95.0462 22.8613 95.248 22.2363C95.4499 21.6048 95.7331 21.0677 96.0977 20.625C96.4622 20.1758 96.8952 19.834 97.3965 19.5996C97.9043 19.3587 98.4707 19.2383 99.0957 19.2383C99.5905 19.2383 100.043 19.3099 100.453 19.4531C100.863 19.5964 101.215 19.8242 101.508 20.1367C101.807 20.4492 102.035 20.8626 102.191 21.377C102.354 21.8913 102.436 22.5195 102.436 23.2617V30H99.6035V23.252C99.6035 22.7832 99.5384 22.4186 99.4082 22.1582C99.278 21.8978 99.0859 21.7155 98.832 21.6113C98.5846 21.5007 98.2786 21.4453 97.9141 21.4453C97.5365 21.4453 97.2077 21.5202 96.9277 21.6699C96.6543 21.8197 96.4264 22.028 96.2441 22.2949C96.0684 22.5553 95.9349 22.8613 95.8438 23.2129C95.7526 23.5645 95.707 23.9421 95.707 24.3457ZM109.75 19.4336V21.4258H103.598V19.4336H109.75ZM105.121 16.8262H107.934V26.8164C107.934 27.1224 107.973 27.3568 108.051 27.5195C108.135 27.6823 108.259 27.7962 108.422 27.8613C108.585 27.9199 108.79 27.9492 109.037 27.9492C109.213 27.9492 109.369 27.9427 109.506 27.9297C109.649 27.9102 109.77 27.8906 109.867 27.8711L109.877 29.9414C109.636 30.0195 109.376 30.0814 109.096 30.127C108.816 30.1725 108.507 30.1953 108.168 30.1953C107.549 30.1953 107.009 30.0944 106.547 29.8926C106.091 29.6842 105.74 29.3522 105.492 28.8965C105.245 28.4408 105.121 27.8418 105.121 27.0996V16.8262ZM116.215 30.1953C115.395 30.1953 114.659 30.0651 114.008 29.8047C113.357 29.5378 112.803 29.1699 112.348 28.7012C111.898 28.2324 111.553 27.6888 111.312 27.0703C111.072 26.4453 110.951 25.7812 110.951 25.0781V24.6875C110.951 23.8867 111.065 23.1543 111.293 22.4902C111.521 21.8262 111.846 21.25 112.27 20.7617C112.699 20.2734 113.22 19.8991 113.832 19.6387C114.444 19.3717 115.134 19.2383 115.902 19.2383C116.651 19.2383 117.315 19.362 117.895 19.6094C118.474 19.8568 118.959 20.2083 119.35 20.6641C119.747 21.1198 120.046 21.6667 120.248 22.3047C120.45 22.9362 120.551 23.6393 120.551 24.4141V25.5859H112.152V23.7109H117.787V23.4961C117.787 23.1055 117.715 22.7572 117.572 22.4512C117.436 22.1387 117.227 21.8913 116.947 21.709C116.667 21.5267 116.309 21.4355 115.873 21.4355C115.502 21.4355 115.183 21.5169 114.916 21.6797C114.649 21.8424 114.431 22.0703 114.262 22.3633C114.099 22.6562 113.975 23.0013 113.891 23.3984C113.812 23.7891 113.773 24.2188 113.773 24.6875V25.0781C113.773 25.5013 113.832 25.8919 113.949 26.25C114.073 26.6081 114.245 26.9173 114.467 27.1777C114.695 27.4382 114.968 27.64 115.287 27.7832C115.613 27.9264 115.98 27.998 116.391 27.998C116.898 27.998 117.37 27.9004 117.807 27.7051C118.249 27.5033 118.63 27.2005 118.949 26.7969L120.316 28.2812C120.095 28.6003 119.792 28.9062 119.408 29.1992C119.031 29.4922 118.575 29.7331 118.041 29.9219C117.507 30.1042 116.898 30.1953 116.215 30.1953ZM126.518 27.998C126.863 27.998 127.169 27.9329 127.436 27.8027C127.702 27.666 127.911 27.4772 128.061 27.2363C128.217 26.9889 128.298 26.6992 128.305 26.3672H130.951C130.945 27.1094 130.746 27.7702 130.355 28.3496C129.965 28.9225 129.441 29.375 128.783 29.707C128.126 30.0326 127.39 30.1953 126.576 30.1953C125.756 30.1953 125.04 30.0586 124.428 29.7852C123.822 29.5117 123.318 29.1341 122.914 28.6523C122.51 28.1641 122.208 27.5977 122.006 26.9531C121.804 26.3021 121.703 25.6055 121.703 24.8633V24.5801C121.703 23.8314 121.804 23.1348 122.006 22.4902C122.208 21.8392 122.51 21.2728 122.914 20.791C123.318 20.3027 123.822 19.9219 124.428 19.6484C125.033 19.375 125.743 19.2383 126.557 19.2383C127.423 19.2383 128.181 19.4043 128.832 19.7363C129.49 20.0684 130.004 20.5436 130.375 21.1621C130.753 21.7741 130.945 22.5 130.951 23.3398H128.305C128.298 22.9883 128.223 22.6693 128.08 22.3828C127.943 22.0964 127.742 21.8685 127.475 21.6992C127.214 21.5234 126.892 21.4355 126.508 21.4355C126.098 21.4355 125.762 21.5234 125.502 21.6992C125.242 21.8685 125.04 22.1029 124.896 22.4023C124.753 22.6953 124.652 23.0306 124.594 23.4082C124.542 23.7793 124.516 24.1699 124.516 24.5801V24.8633C124.516 25.2734 124.542 25.6673 124.594 26.0449C124.646 26.4225 124.743 26.7578 124.887 27.0508C125.036 27.3438 125.242 27.5749 125.502 27.7441C125.762 27.9134 126.101 27.998 126.518 27.998ZM135.326 15V30H132.514V15H135.326ZM134.926 24.3457H134.154C134.161 23.61 134.258 22.9329 134.447 22.3145C134.636 21.6895 134.906 21.1491 135.258 20.6934C135.609 20.2311 136.029 19.873 136.518 19.6191C137.012 19.3652 137.559 19.2383 138.158 19.2383C138.679 19.2383 139.151 19.3132 139.574 19.4629C140.004 19.6061 140.372 19.8405 140.678 20.166C140.99 20.485 141.231 20.9049 141.4 21.4258C141.57 21.9466 141.654 22.5781 141.654 23.3203V30H138.822V23.3008C138.822 22.832 138.754 22.4642 138.617 22.1973C138.487 21.9238 138.295 21.7318 138.041 21.6211C137.794 21.5039 137.488 21.4453 137.123 21.4453C136.719 21.4453 136.374 21.5202 136.088 21.6699C135.808 21.8197 135.583 22.028 135.414 22.2949C135.245 22.5553 135.121 22.8613 135.043 23.2129C134.965 23.5645 134.926 23.9421 134.926 24.3457ZM88.8418 38.7812V53H85.9121L80.1992 43.4688V53H77.2695V38.7812H80.1992L85.9219 48.3223V38.7812H88.8418ZM100.932 50.7148V53H93.3633V50.7148H100.932ZM94.3203 38.7812V53H91.3906V38.7812H94.3203ZM99.9453 44.5723V46.7988H93.3633V44.5723H99.9453ZM100.922 38.7812V41.0762H93.3633V38.7812H100.922ZM110.492 38.7812H113.412V48.1758C113.412 49.2695 113.178 50.1908 112.709 50.9395C112.247 51.6882 111.605 52.2513 110.785 52.6289C109.971 53.0065 109.034 53.1953 107.973 53.1953C106.911 53.1953 105.967 53.0065 105.141 52.6289C104.32 52.2513 103.676 51.6882 103.207 50.9395C102.745 50.1908 102.514 49.2695 102.514 48.1758V38.7812H105.443V48.1758C105.443 48.8138 105.544 49.3346 105.746 49.7383C105.948 50.1419 106.238 50.4382 106.615 50.627C106.999 50.8158 107.452 50.9102 107.973 50.9102C108.507 50.9102 108.959 50.8158 109.33 50.627C109.708 50.4382 109.994 50.1419 110.189 49.7383C110.391 49.3346 110.492 48.8138 110.492 48.1758V38.7812ZM125.932 50.0312L129.281 38.7812H132.543L127.592 53H125.443L125.932 50.0312ZM122.846 38.7812L126.186 50.0312L126.693 53H124.525L119.604 38.7812H122.846ZM138.949 50.6172V45.9102C138.949 45.5716 138.894 45.2819 138.783 45.041C138.673 44.7936 138.5 44.6016 138.266 44.4648C138.038 44.3281 137.742 44.2598 137.377 44.2598C137.064 44.2598 136.794 44.3151 136.566 44.4258C136.339 44.5299 136.163 44.6829 136.039 44.8848C135.915 45.0801 135.854 45.3112 135.854 45.5781H133.041C133.041 45.1289 133.145 44.7025 133.354 44.2988C133.562 43.8952 133.865 43.5404 134.262 43.2344C134.659 42.9219 135.131 42.6777 135.678 42.502C136.231 42.3262 136.85 42.2383 137.533 42.2383C138.354 42.2383 139.083 42.375 139.721 42.6484C140.359 42.9219 140.86 43.332 141.225 43.8789C141.596 44.4258 141.781 45.1094 141.781 45.9297V50.4512C141.781 51.0306 141.817 51.5059 141.889 51.877C141.96 52.2415 142.064 52.5605 142.201 52.834V53H139.359C139.223 52.7135 139.118 52.3555 139.047 51.9258C138.982 51.4896 138.949 51.0534 138.949 50.6172ZM139.32 46.5645L139.34 48.1562H137.768C137.396 48.1562 137.074 48.1986 136.801 48.2832C136.527 48.3678 136.303 48.4883 136.127 48.6445C135.951 48.7943 135.821 48.9701 135.736 49.1719C135.658 49.3737 135.619 49.5951 135.619 49.8359C135.619 50.0768 135.674 50.2949 135.785 50.4902C135.896 50.679 136.055 50.8288 136.264 50.9395C136.472 51.0436 136.716 51.0957 136.996 51.0957C137.419 51.0957 137.787 51.0111 138.1 50.8418C138.412 50.6725 138.653 50.4642 138.822 50.2168C138.998 49.9694 139.089 49.735 139.096 49.5137L139.838 50.7051C139.734 50.972 139.59 51.2487 139.408 51.5352C139.232 51.8216 139.008 52.0918 138.734 52.3457C138.461 52.5931 138.132 52.7982 137.748 52.9609C137.364 53.1172 136.908 53.1953 136.381 53.1953C135.71 53.1953 135.102 53.0618 134.555 52.7949C134.014 52.5215 133.585 52.1471 133.266 51.6719C132.953 51.1901 132.797 50.6432 132.797 50.0312C132.797 49.4779 132.901 48.9863 133.109 48.5566C133.318 48.127 133.624 47.7656 134.027 47.4727C134.438 47.1732 134.949 46.9486 135.561 46.7988C136.173 46.6426 136.882 46.5645 137.689 46.5645H139.32ZM146.703 44.6895V53H143.891V42.4336H146.527L146.703 44.6895ZM146.293 47.3457H145.531C145.531 46.5645 145.632 45.8613 145.834 45.2363C146.036 44.6048 146.319 44.0677 146.684 43.625C147.048 43.1758 147.481 42.834 147.982 42.5996C148.49 42.3587 149.057 42.2383 149.682 42.2383C150.176 42.2383 150.629 42.3099 151.039 42.4531C151.449 42.5964 151.801 42.8242 152.094 43.1367C152.393 43.4492 152.621 43.8626 152.777 44.377C152.94 44.8913 153.021 45.5195 153.021 46.2617V53H150.189V46.252C150.189 45.7832 150.124 45.4186 149.994 45.1582C149.864 44.8978 149.672 44.7155 149.418 44.6113C149.171 44.5007 148.865 44.4453 148.5 44.4453C148.122 44.4453 147.794 44.5202 147.514 44.6699C147.24 44.8197 147.012 45.028 146.83 45.2949C146.654 45.5553 146.521 45.8613 146.43 46.2129C146.339 46.5645 146.293 46.9421 146.293 47.3457ZM159.525 50.998C159.87 50.998 160.176 50.9329 160.443 50.8027C160.71 50.666 160.919 50.4772 161.068 50.2363C161.225 49.9889 161.306 49.6992 161.312 49.3672H163.959C163.952 50.1094 163.754 50.7702 163.363 51.3496C162.973 51.9225 162.449 52.375 161.791 52.707C161.133 53.0326 160.398 53.1953 159.584 53.1953C158.764 53.1953 158.048 53.0586 157.436 52.7852C156.83 52.5117 156.326 52.1341 155.922 51.6523C155.518 51.1641 155.215 50.5977 155.014 49.9531C154.812 49.3021 154.711 48.6055 154.711 47.8633V47.5801C154.711 46.8314 154.812 46.1348 155.014 45.4902C155.215 44.8392 155.518 44.2728 155.922 43.791C156.326 43.3027 156.83 42.9219 157.436 42.6484C158.041 42.375 158.751 42.2383 159.564 42.2383C160.43 42.2383 161.189 42.4043 161.84 42.7363C162.497 43.0684 163.012 43.5436 163.383 44.1621C163.76 44.7741 163.952 45.5 163.959 46.3398H161.312C161.306 45.9883 161.231 45.6693 161.088 45.3828C160.951 45.0964 160.749 44.8685 160.482 44.6992C160.222 44.5234 159.9 44.4355 159.516 44.4355C159.105 44.4355 158.77 44.5234 158.51 44.6992C158.249 44.8685 158.048 45.1029 157.904 45.4023C157.761 45.6953 157.66 46.0306 157.602 46.4082C157.549 46.7793 157.523 47.1699 157.523 47.5801V47.8633C157.523 48.2734 157.549 48.6673 157.602 49.0449C157.654 49.4225 157.751 49.7578 157.895 50.0508C158.044 50.3438 158.249 50.5749 158.51 50.7441C158.77 50.9134 159.109 50.998 159.525 50.998ZM165.141 47.8242V47.6191C165.141 46.8444 165.251 46.1315 165.473 45.4805C165.694 44.8229 166.016 44.2533 166.439 43.7715C166.863 43.2897 167.383 42.9154 168.002 42.6484C168.62 42.375 169.33 42.2383 170.131 42.2383C170.932 42.2383 171.645 42.375 172.27 42.6484C172.895 42.9154 173.419 43.2897 173.842 43.7715C174.271 44.2533 174.597 44.8229 174.818 45.4805C175.04 46.1315 175.15 46.8444 175.15 47.6191V47.8242C175.15 48.5924 175.04 49.3053 174.818 49.9629C174.597 50.6139 174.271 51.1836 173.842 51.6719C173.419 52.1536 172.898 52.528 172.279 52.7949C171.661 53.0618 170.951 53.1953 170.15 53.1953C169.35 53.1953 168.637 53.0618 168.012 52.7949C167.393 52.528 166.869 52.1536 166.439 51.6719C166.016 51.1836 165.694 50.6139 165.473 49.9629C165.251 49.3053 165.141 48.5924 165.141 47.8242ZM167.953 47.6191V47.8242C167.953 48.2669 167.992 48.6803 168.07 49.0645C168.148 49.4486 168.272 49.7871 168.441 50.0801C168.617 50.3665 168.845 50.5911 169.125 50.7539C169.405 50.9167 169.747 50.998 170.15 50.998C170.541 50.998 170.876 50.9167 171.156 50.7539C171.436 50.5911 171.661 50.3665 171.83 50.0801C171.999 49.7871 172.123 49.4486 172.201 49.0645C172.286 48.6803 172.328 48.2669 172.328 47.8242V47.6191C172.328 47.1895 172.286 46.7858 172.201 46.4082C172.123 46.0241 171.996 45.6855 171.82 45.3926C171.651 45.0931 171.426 44.8587 171.146 44.6895C170.867 44.5202 170.528 44.4355 170.131 44.4355C169.734 44.4355 169.395 44.5202 169.115 44.6895C168.842 44.8587 168.617 45.0931 168.441 45.3926C168.272 45.6855 168.148 46.0241 168.07 46.4082C167.992 46.7858 167.953 47.1895 167.953 47.6191ZM183.129 50.4707V42.4336H185.941V53H183.295L183.129 50.4707ZM183.441 48.3027L184.271 48.2832C184.271 48.9863 184.19 49.6406 184.027 50.2461C183.865 50.8451 183.62 51.3659 183.295 51.8086C182.969 52.2448 182.559 52.5866 182.064 52.834C181.57 53.0749 180.987 53.1953 180.316 53.1953C179.802 53.1953 179.327 53.1237 178.891 52.9805C178.461 52.8307 178.09 52.5996 177.777 52.2871C177.471 51.9681 177.23 51.5612 177.055 51.0664C176.885 50.5651 176.801 49.9629 176.801 49.2598V42.4336H179.613V49.2793C179.613 49.5918 179.649 49.8555 179.721 50.0703C179.799 50.2852 179.906 50.4609 180.043 50.5977C180.18 50.7344 180.339 50.832 180.521 50.8906C180.71 50.9492 180.919 50.9785 181.146 50.9785C181.726 50.9785 182.182 50.8613 182.514 50.627C182.852 50.3926 183.09 50.0736 183.227 49.6699C183.37 49.2598 183.441 48.804 183.441 48.3027ZM191.684 50.9492L194.027 42.4336H196.967L193.402 53H191.625L191.684 50.9492ZM190.072 42.4336L192.426 50.959L192.475 53H190.688L187.123 42.4336H190.072ZM202.953 53.1953C202.133 53.1953 201.397 53.0651 200.746 52.8047C200.095 52.5378 199.542 52.1699 199.086 51.7012C198.637 51.2324 198.292 50.6888 198.051 50.0703C197.81 49.4453 197.689 48.7812 197.689 48.0781V47.6875C197.689 46.8867 197.803 46.1543 198.031 45.4902C198.259 44.8262 198.585 44.25 199.008 43.7617C199.438 43.2734 199.958 42.8991 200.57 42.6387C201.182 42.3717 201.872 42.2383 202.641 42.2383C203.389 42.2383 204.053 42.362 204.633 42.6094C205.212 42.8568 205.697 43.2083 206.088 43.6641C206.485 44.1198 206.785 44.6667 206.986 45.3047C207.188 45.9362 207.289 46.6393 207.289 47.4141V48.5859H198.891V46.7109H204.525V46.4961C204.525 46.1055 204.454 45.7572 204.311 45.4512C204.174 45.1387 203.965 44.8913 203.686 44.709C203.406 44.5267 203.048 44.4355 202.611 44.4355C202.24 44.4355 201.921 44.5169 201.654 44.6797C201.387 44.8424 201.169 45.0703 201 45.3633C200.837 45.6562 200.714 46.0013 200.629 46.3984C200.551 46.7891 200.512 47.2188 200.512 47.6875V48.0781C200.512 48.5013 200.57 48.8919 200.688 49.25C200.811 49.6081 200.984 49.9173 201.205 50.1777C201.433 50.4382 201.706 50.64 202.025 50.7832C202.351 50.9264 202.719 50.998 203.129 50.998C203.637 50.998 204.109 50.9004 204.545 50.7051C204.988 50.5033 205.368 50.2005 205.688 49.7969L207.055 51.2812C206.833 51.6003 206.531 51.9062 206.146 52.1992C205.769 52.4922 205.313 52.7331 204.779 52.9219C204.245 53.1042 203.637 53.1953 202.953 53.1953ZM211.703 44.7383V53H208.891V42.4336H211.537L211.703 44.7383ZM214.887 42.3652L214.838 44.9727C214.701 44.9531 214.535 44.9368 214.34 44.9238C214.151 44.9043 213.979 44.8945 213.822 44.8945C213.425 44.8945 213.08 44.9466 212.787 45.0508C212.501 45.1484 212.26 45.2949 212.064 45.4902C211.876 45.6855 211.732 45.9232 211.635 46.2031C211.544 46.4831 211.492 46.8021 211.479 47.1602L210.912 46.9844C210.912 46.3008 210.98 45.6725 211.117 45.0996C211.254 44.5202 211.452 44.0156 211.713 43.5859C211.98 43.1562 212.305 42.8242 212.689 42.5898C213.074 42.3555 213.513 42.2383 214.008 42.2383C214.164 42.2383 214.324 42.2513 214.486 42.2773C214.649 42.2969 214.783 42.3262 214.887 42.3652Z" fill="white"/>
</svg>
